<svg width="150" height="150" viewBox="0 0 150 150" fill="none" xmlns="http://www.w3.org/2000/svg">
<path d="M57.7122 7.4941C57.2416 8.34037 56.9212 9.22624 56.9342 12.2028C56.9528 16.45 57.0301 24.9293 57.0301 29.1766C57.1608 29.1766 57.8006 28.031 57.9077 28.0473C58.6565 28.2337 59.3996 28.1161 60.1108 28.6062C61.0535 29.2559 62.7992 27.5056 63.8165 26.7843C65.959 25.265 63.9064 13.5341 64.6704 10.8253C64.9211 9.93651 66.7433 10.2345 67.3527 10.1274C72.3861 9.24329 77.3204 9.88256 82.3772 10.1756C83.209 10.2238 83.7742 10.0181 84.0844 10.6224C84.68 11.7826 84.7414 14.2396 84.713 15.5669C84.6942 16.4417 83.9352 29.9819 84.8672 30.0897C85.7313 30.1897 90.047 30.5613 90.2275 29.7532C90.2807 29.515 90.308 22.6604 90.3554 21.4689C90.5711 16.0539 90.8116 13.4967 90.7827 8.06019C90.7718 6.01013 90.753 5.32828 90.4503 4.78391C89.5404 3.14746 87.5649 2.93608 86.2404 2.66797C80.1369 1.43253 73.8 2.31055 67.6812 3.10137C64.4043 3.5249 60.0304 3.32483 57.7122 7.4941Z" fill="#FF7D2D" stroke="#FF7D2D" stroke-width="2.82094" stroke-linecap="round"/>
<path d="M73.8591 24.6201C89.8519 24.6201 104.985 37.701 116.341 56.0801C127.609 74.3177 134.509 96.7828 134.51 113.687C134.51 122.079 132.809 128.069 129.979 132.412C127.165 136.732 123.058 139.693 117.735 141.724C106.846 145.878 91.5892 145.92 73.8591 145.92C56.1293 145.92 40.8736 145.878 29.9841 141.724C24.6612 139.693 20.5544 136.732 17.74 132.412C14.9101 128.069 13.2097 122.079 13.2097 113.687C13.2098 96.7828 20.1105 74.3177 31.3787 56.0801C42.7341 37.7012 57.8666 24.6203 73.8591 24.6201Z" fill="white" stroke="#FF7D2D" stroke-width="5.64187"/>
<mask id="mask0_15_279" style="mask-type:alpha" maskUnits="userSpaceOnUse" x="10" y="21" width="128" height="128">
<path d="M73.8591 24.6201C89.8519 24.6201 104.985 37.701 116.341 56.0801C127.609 74.3177 134.509 96.7828 134.51 113.687C134.51 122.079 132.809 128.069 129.979 132.412C127.165 136.732 123.058 139.693 117.735 141.724C106.846 145.878 91.5892 145.92 73.8591 145.92C56.1293 145.92 40.8736 145.878 29.9841 141.724C24.6612 139.693 20.5544 136.732 17.74 132.412C14.9101 128.069 13.2097 122.079 13.2097 113.687C13.2098 96.7828 20.1105 74.3177 31.3787 56.0801C42.7341 37.7012 57.8666 24.6203 73.8591 24.6201Z" fill="#EF6B1A" stroke="black" stroke-width="5.64187"/>
</mask>
<g mask="url(#mask0_15_279)">
<path d="M-10.5292 35.3725C-10.5292 35.3725 34.578 59.5938 74.0669 60.3929C113.556 61.1921 158.724 36.4389 158.724 36.4389L158.289 83.3282C158.289 83.3282 119.466 105.876 73.622 106.413C27.7775 106.949 -10.9642 82.2618 -10.9642 82.2618L-10.5292 35.3725Z" fill="#FF7D2D"/>
</g>
<ellipse cx="51.7121" cy="84.1529" rx="15.2198" ry="18.0103" transform="rotate(26.015 51.7121 84.1529)" fill="white"/>
<ellipse cx="11.1123" cy="13.5217" rx="11.1123" ry="13.5217" transform="matrix(-0.999867 -0.0163059 -0.0163059 0.999867 66.23 71.9121)" fill="black"/>
<ellipse cx="15.2198" cy="18.0103" rx="15.2198" ry="18.0103" transform="matrix(-0.898679 0.438607 0.438607 0.898679 101.215 61.292)" fill="white"/>
<ellipse cx="92.25" cy="85.2508" rx="11.1123" ry="13.5217" transform="rotate(-0.9343 92.25 85.2508)" fill="black"/>
<path d="M65.8706 111.044C66.0707 112.346 66.9304 114.559 67.5125 115.595C67.9562 116.385 68.9961 117.459 70.5127 117.889C73.0702 118.613 75.6685 118.12 76.8046 117.69C78.1285 117.189 78.7516 116.201 79.2329 115.342C79.5095 114.988 79.8642 114.133 80.1674 112.822C80.2704 112.211 80.2704 111.711 80.422 110.893" stroke="black" stroke-width="2.82094" stroke-linecap="round"/>
</svg>
